<svg width="726" height="370" viewBox="0 0 726 370" fill="none" xmlns="http://www.w3.org/2000/svg">
<path d="M57 167.73C109.283 167.73 136.451 123.002 141.959 112.818C142.377 112.044 143.506 112.129 143.766 112.969C148.193 127.282 154.145 168.821 158 212M158 212C161.257 248.487 163.887 279 153.5 307.23C144.401 331.961 123.479 346.784 102.5 338.73C48.5 318 110.5 219 158 212ZM669 209.23V123.23M485.222 209.526C485.222 209.526 480.222 169.025 485.222 150.025C491.5 122.893 530.5 107.894 550.222 147.024M616.722 209.526C617.501 204.617 622.5 172.73 616.722 150.025C611.5 122.893 567.5 107.894 550.222 147.024M550.222 209.526C550.222 209.526 557.5 166.23 550.222 147.024M147 67C147 67 149.42 54.3091 164.143 40.933C178.865 27.557 195 29.0497 195 29.0497M296 167.73C296 193.964 274.734 215.23 248.5 215.23C222.266 215.23 201 193.964 201 167.73C201 141.497 222.266 120.23 248.5 120.23C274.734 120.23 296 141.497 296 167.73ZM437 167.73C437 193.964 415.734 215.23 389.5 215.23C363.266 215.23 342 193.964 342 167.73C342 141.497 363.266 120.23 389.5 120.23C415.734 120.23 437 141.497 437 167.73Z" stroke="white" stroke-width="26" stroke-linecap="round"/>
<path d="M286 248V248C305.864 264.985 335.136 264.985 355 248V248" stroke="white" stroke-width="26" stroke-linecap="round"/>
<ellipse cx="415.5" cy="143.5" rx="20.5" ry="19.5" fill="white"/>
<ellipse cx="273.5" cy="143.5" rx="20.5" ry="19.5" fill="white"/>
</svg>
