<svg width="726" height="370" viewBox="0 0 726 370" fill="none" xmlns="http://www.w3.org/2000/svg">
<path d="M57 167.73C109.283 167.73 136.451 123.002 141.959 112.818C142.377 112.044 143.506 112.129 143.766 112.969C148.193 127.282 154.145 168.821 158 212M158 212C161.257 248.487 163.887 279 153.5 307.23C144.401 331.961 123.479 346.784 102.5 338.73C48.5 318 110.5 219 158 212ZM669 209.23V123.23M485.222 209.526C485.222 209.526 480.222 169.025 485.222 150.025C491.5 122.893 530.5 107.894 550.222 147.024M616.722 209.526C617.501 204.617 622.5 172.73 616.722 150.025C611.5 122.893 567.5 107.894 550.222 147.024M550.222 209.526C550.222 209.526 557.5 166.23 550.222 147.024M147 67C147 67 149.42 54.3091 164.143 40.933C178.865 27.557 195 29.0497 195 29.0497" stroke="white" stroke-width="26" stroke-linecap="round"/>
<path d="M295 168.5C295 194.734 273.734 216 247.5 216C221.266 216 200 194.734 200 168.5C200 142.266 221.266 121 247.5 121C273.734 121 295 142.266 295 168.5Z" stroke="white" stroke-opacity="0.25" stroke-width="26" stroke-linecap="round"/>
<path d="M436 168.5C436 194.734 414.734 216 388.5 216C362.266 216 341 194.734 341 168.5C341 142.266 362.266 121 388.5 121C414.734 121 436 142.266 436 168.5Z" stroke="white" stroke-opacity="0.25" stroke-width="26" stroke-linecap="round"/>
<path d="M205 127L287 209M205 209L287 127" stroke="white" stroke-width="26" stroke-linecap="round"/>
<path d="M347 127L429 209M347 209L429 127" stroke="white" stroke-width="26" stroke-linecap="round"/>
<path d="M356 268.5V268.5C336.136 251.515 306.864 251.515 287 268.5V268.5" stroke="white" stroke-width="26" stroke-linecap="round"/>
</svg>
