<svg width="860" height="403" viewBox="0 0 860 403" fill="none" xmlns="http://www.w3.org/2000/svg">
<path d="M13 151.73C65.2831 151.73 92.4505 107.002 97.9586 96.8181C98.3773 96.044 99.5057 96.1286 99.7658 96.9694C104.193 111.282 110.145 152.821 114 196M114 196C117.257 232.487 119.887 263 109.5 291.23C100.401 315.961 79.4794 330.784 58.5 322.73C4.5 302 66.5 203 114 196ZM625 193.23V107.23M441.222 193.526C441.222 193.526 436.222 153.025 441.222 134.025C447.5 106.893 486.5 91.8942 506.222 131.024M572.722 193.526C573.501 188.617 578.5 156.73 572.722 134.025C567.5 106.893 523.5 91.8942 506.222 131.024M506.222 193.526C506.222 193.526 513.5 150.23 506.222 131.024M103 51C103 51 105.42 38.3091 120.143 24.933C134.865 11.557 151 13.0497 151 13.0497M252 151.73C252 177.964 230.734 199.23 204.5 199.23C178.266 199.23 157 177.964 157 151.73C157 125.497 178.266 104.23 204.5 104.23C230.734 104.23 252 125.497 252 151.73ZM393 151.73C393 177.964 371.734 199.23 345.5 199.23C319.266 199.23 298 177.964 298 151.73C298 125.497 319.266 104.23 345.5 104.23C371.734 104.23 393 125.497 393 151.73Z" stroke="white" stroke-width="26" stroke-linecap="round"/>
<path d="M242 232V232C261.864 248.985 291.136 248.985 311 232V232" stroke="white" stroke-width="26" stroke-linecap="round"/>
<ellipse cx="371.5" cy="127.5" rx="20.5" ry="19.5" fill="white"/>
<ellipse cx="229.5" cy="127.5" rx="20.5" ry="19.5" fill="white"/>
<path d="M219.717 305.472V348.048C219.717 351.92 219.125 355.424 217.941 358.56C216.757 361.696 215.013 364.368 212.709 366.576C210.437 368.784 207.637 370.48 204.309 371.664C201.013 372.848 197.237 373.44 192.981 373.44C188.693 373.44 184.981 372.896 181.845 371.808C178.741 370.688 175.749 369.152 172.869 367.2L178.869 357.504C181.141 359.072 183.269 360.176 185.253 360.816C187.237 361.424 189.493 361.728 192.021 361.728C195.445 361.728 198.293 360.64 200.565 358.464C202.869 356.256 204.021 352.848 204.021 348.24V316.992H183.573V305.472H219.717ZM280.256 305.472V349.728C280.256 354.272 279.328 358.352 277.472 361.968C275.648 365.552 272.896 368.4 269.216 370.512C265.568 372.592 260.992 373.632 255.488 373.632C249.952 373.632 245.344 372.624 241.664 370.608C238.016 368.592 235.28 365.792 233.456 362.208C231.632 358.624 230.72 354.464 230.72 349.728V305.472H246.512V343.872C246.512 349.856 247.056 354.368 248.144 357.408C249.232 360.416 251.68 361.92 255.488 361.92C259.296 361.92 261.744 360.416 262.832 357.408C263.92 354.368 264.464 349.856 264.464 343.872V305.472H280.256ZM338.778 352.56C338.778 356.688 337.69 360.336 335.514 363.504C333.37 366.672 330.282 369.152 326.25 370.944C322.218 372.736 317.37 373.632 311.706 373.632C305.434 373.632 300.17 372.72 295.914 370.896C291.69 369.04 288.186 366.752 285.402 364.032L293.37 355.2C295.834 357.344 298.554 359.008 301.53 360.192C304.506 361.344 307.77 361.92 311.322 361.92C313.53 361.92 315.466 361.6 317.13 360.96C318.794 360.32 320.09 359.392 321.018 358.176C321.946 356.96 322.41 355.488 322.41 353.76C322.41 352.128 322.042 350.752 321.306 349.632C320.57 348.512 319.322 347.504 317.562 346.608C315.834 345.712 313.418 344.8 310.314 343.872C305.13 342.272 300.954 340.512 297.786 338.592C294.65 336.672 292.362 334.448 290.922 331.92C289.514 329.392 288.81 326.448 288.81 323.088C288.81 319.024 289.93 315.552 292.17 312.672C294.442 309.792 297.482 307.6 301.29 306.096C305.098 304.56 309.29 303.792 313.866 303.792C319.018 303.792 323.562 304.544 327.498 306.048C331.434 307.52 334.842 309.632 337.722 312.384L330.282 320.928C328.042 319.04 325.626 317.648 323.034 316.752C320.442 315.824 317.802 315.36 315.114 315.36C313.13 315.36 311.386 315.616 309.882 316.128C308.378 316.608 307.21 317.328 306.378 318.288C305.546 319.248 305.13 320.448 305.13 321.888C305.13 323.296 305.53 324.48 306.33 325.44C307.13 326.4 308.522 327.312 310.506 328.176C312.49 329.008 315.242 329.984 318.762 331.104C322.954 332.384 326.538 333.92 329.514 335.712C332.522 337.472 334.81 339.696 336.378 342.384C337.978 345.072 338.778 348.464 338.778 352.56ZM378.389 317.52V372H362.645V317.52H343.973V305.472H397.829L396.197 317.52H378.389ZM509.114 305.472L512.858 372H499.13L498.314 343.536C498.25 340.88 498.218 338.512 498.218 336.432C498.25 334.352 498.298 332.4 498.362 330.576C498.426 328.72 498.522 326.864 498.65 325.008C498.81 323.12 498.97 321.072 499.13 318.864L491.642 360.672H479.738L471.674 318.864C471.866 320.976 472.026 322.976 472.154 324.864C472.314 326.72 472.426 328.592 472.49 330.48C472.554 332.368 472.602 334.4 472.634 336.576C472.666 338.72 472.65 341.12 472.586 343.776L472.106 372H458.618L462.362 305.472H478.538L485.93 348.48L492.938 305.472H509.114ZM552.9 357.648H533.412L529.908 372H513.444L533.796 305.472H552.9L573.252 372H556.404L552.9 357.648ZM535.908 346.224H550.308L543.108 316.8L535.908 346.224ZM593.471 372H577.727V305.472H593.471V372ZM593.951 336.48L612.143 305.472H628.655L609.839 335.328L630.479 372H612.239L593.951 336.48ZM654.297 316.704V332.688H677.337V343.728H654.297V360.72H682.089V372H638.553V305.472H682.041L680.457 316.704H654.297ZM795.15 305.472V316.992H781.422V360.432H795.15V372H751.95V360.432H765.678V316.992H751.95V305.472H795.15ZM838.889 317.52V372H823.145V317.52H804.473V305.472H858.329L856.697 317.52H838.889Z" fill="white"/>
</svg>
