<svg width="638" height="338" viewBox="0 0 638 338" fill="none" xmlns="http://www.w3.org/2000/svg">
<path d="M13 151.73C65.2831 151.73 92.4505 107.002 97.9586 96.8181C98.3773 96.044 99.5057 96.1286 99.7658 96.9694C104.193 111.282 110.145 152.821 114 196M114 196C117.257 232.487 119.887 263 109.5 291.23C100.401 315.961 79.4794 330.784 58.5 322.73C4.5 302 66.5 203 114 196ZM625 193.23V107.23M441.222 193.526C441.222 193.526 436.222 153.025 441.222 134.025C447.5 106.893 486.5 91.8942 506.222 131.024M572.722 193.526C573.501 188.617 578.5 156.73 572.722 134.025C567.5 106.893 523.5 91.8942 506.222 131.024M506.222 193.526C506.222 193.526 513.5 150.23 506.222 131.024M103 51C103 51 105.42 38.3091 120.143 24.933C134.865 11.557 151 13.0497 151 13.0497M252 151.73C252 177.964 230.734 199.23 204.5 199.23C178.266 199.23 157 177.964 157 151.73C157 125.497 178.266 104.23 204.5 104.23C230.734 104.23 252 125.497 252 151.73ZM393 151.73C393 177.964 371.734 199.23 345.5 199.23C319.266 199.23 298 177.964 298 151.73C298 125.497 319.266 104.23 345.5 104.23C371.734 104.23 393 125.497 393 151.73Z" stroke="white" stroke-width="26" stroke-linecap="round"/>
<path d="M242 232V232C261.864 248.985 291.136 248.985 311 232V232" stroke="white" stroke-width="26" stroke-linecap="round"/>
<ellipse cx="371.5" cy="127.5" rx="20.5" ry="19.5" fill="white"/>
<ellipse cx="229.5" cy="127.5" rx="20.5" ry="19.5" fill="white"/>
</svg>
