<svg width="1920" height="1080" viewBox="0 0 1920 1080" fill="none" xmlns="http://www.w3.org/2000/svg">
<path d="M1625.25 276.594C1613.45 306.203 1579.75 320.584 1549.98 308.715C1520.22 296.846 1505.66 263.221 1517.47 233.612C1529.27 204.003 1562.97 189.622 1592.74 201.491C1622.5 213.36 1637.06 246.985 1625.25 276.594Z" stroke="#9690CF" stroke-opacity="0.5" stroke-width="31" stroke-linecap="round"/>
<path d="M1785.23 340.388C1773.43 369.997 1739.73 384.378 1709.96 372.509C1680.2 360.64 1665.64 327.015 1677.45 297.406C1689.25 267.797 1722.95 253.416 1752.72 265.285C1782.48 277.154 1797.04 310.779 1785.23 340.388Z" stroke="#9690CF" stroke-opacity="0.5" stroke-width="31" stroke-linecap="round"/>
<path d="M1542.13 188.782L1597.56 318.86M1504.99 281.944L1634.71 225.698" stroke="#9690CF" stroke-width="31" stroke-linecap="round"/>
<path d="M1703.27 253.034L1758.69 383.112M1666.12 346.196L1795.84 289.95" stroke="#9690CF" stroke-width="31" stroke-linecap="round"/>
<path d="M362.211 782.418C351.941 822.261 311.243 846.216 271.308 835.922C231.373 825.629 207.325 784.985 217.595 745.142C227.865 705.299 268.564 681.345 308.499 691.638C348.433 701.932 372.481 742.575 362.211 782.418ZM362.211 782.418L432.236 800.468M432.236 800.468C421.966 840.311 446.014 880.955 485.949 891.248C525.884 901.542 566.582 877.587 576.852 837.744C587.122 797.901 563.074 757.258 523.14 746.964C483.205 736.671 442.506 760.625 432.236 800.468Z" stroke="#9690CF" stroke-width="40" stroke-linecap="round"/>
<path d="M272.25 211.893C277.689 241.219 258.324 269.401 228.999 274.839C199.673 280.278 171.491 260.914 166.053 231.588C160.614 202.262 179.978 174.08 209.304 168.642C238.629 163.203 266.811 182.567 272.25 211.893Z" stroke="#9690CF" stroke-width="32" stroke-linecap="round"/>
<path d="M323.067 201.899C323.067 201.899 358.305 194.183 386.686 205.135C410.973 214.507 431.909 240.11 431.909 240.11M323.067 201.901C326.978 201.176 332.57 198.154 339.069 193.73C366.943 174.758 411.489 130 411.489 130" stroke="#9690CF" stroke-width="32" stroke-linecap="round"/>
</svg>
